# xmcd
#
# Track frame offsets:
#	150
#	13132
#	51896
#	73588
#	98114
#	106210
#	139385
#	177699
#	187639
#
# Disc length: 2841 seconds
#
# Revision: 1
# Processed by: cddbd v1.5.1PL2 Copyright (c) Steve Scherf et al.
# Submitted via: EasyCDDAExtractor 9.0.0.1
#
DISCID=7b0b1709
DTITLE=Whitesnake - Hartwall Arena Helsinki 11-07-06 Disc 2
DYEAR=2006
DGENRE=Hard Rock
TTITLE0=Band Introductions
TTITLE1=Ain't No Love In The Heart Of The City
TTITLE2=Give Me All Your Love
TTITLE3=Here I Go Again
TTITLE4=Crowd Chanting
TTITLE5=Take Me With You (With Bass And Keyboard Solos)
TTITLE6=Still Of The Night
TTITLE7=Crowd Chanting II
TTITLE8=Bad Boys
EXTD=
EXTT0=
EXTT1=
EXTT2=
EXTT3=
EXTT4=
EXTT5=
EXTT6=
EXTT7=
EXTT8=
PLAYORDER=
